<?xml version="1.0" encoding="UTF-8"?>
<svg width="16px" height="16px" viewBox="0 0 16 16" version="1.1" xmlns="http://www.w3.org/2000/svg" xmlns:xlink="http://www.w3.org/1999/xlink">
    <!-- Generator: Sketch 49.3 (51167) - http://www.bohemiancoding.com/sketch -->
    <title>close_16</title>
    <desc>Created with Sketch.</desc>
    <defs></defs>
    <g id="UI" stroke="none" stroke-width="1" fill="none" fill-rule="evenodd">
        <g id="sprite" transform="translate(-500.000000, -224.000000)" fill="#A3A3A3" fill-rule="nonzero">
            <path d="M508,230.585786 L511.792893,226.792893 C512.183418,226.402369 512.816582,226.402369 513.207107,226.792893 C513.597631,227.183418 513.597631,227.816582 513.207107,228.207107 L509.414214,232 L513.207107,235.792893 C513.597631,236.183418 513.597631,236.816582 513.207107,237.207107 C512.816582,237.597631 512.183418,237.597631 511.792893,237.207107 L508,233.414214 L504.207107,237.207107 C503.816582,237.597631 503.183418,237.597631 502.792893,237.207107 C502.402369,236.816582 502.402369,236.183418 502.792893,235.792893 L506.585786,232 L502.792893,228.207107 C502.402369,227.816582 502.402369,227.183418 502.792893,226.792893 C503.183418,226.402369 503.816582,226.402369 504.207107,226.792893 L508,230.585786 Z" id="close_16"></path>
        </g>
    </g>
</svg>