<svg width="16" height="16" xmlns="http://www.w3.org/2000/svg"><path d="M10 9.885c-.414.258-.763.473-1 .615-1 .6-1 .6-2 0a195.212 195.212 0 0 1-4-2.52v2.32c0 .645.014.724.123.835.095.097.27.217.634.436l.89.534 2.11 1.266c.839.503 1.048.604 1.243.604.195 0 .404-.1 1.243-.604l3-1.8c.365-.219.539-.339.634-.436.109-.111.123-.19.123-.835V7.98c-.65.42-1.353.867-2 1.276V11a.5.5 0 0 1-1 0V9.885zm.821-1.699A188.39 188.39 0 0 0 14.196 6a203.5 203.5 0 0 0-5.71-3.642C8.059 2.1 7.952 2.05 8 2.05c.048 0-.059.051-.486.308A203.5 203.5 0 0 0 1.804 6l.25.168a203.5 203.5 0 0 0 5.46 3.474c.427.257.534.308.486.308-.048 0 .059-.051.486-.308.337-.202.865-.53 1.475-.913L6.709 6.407a.5.5 0 0 1 .582-.814l3.29 2.35a1 1 0 0 1 .24.243zM14 7.33v2.97c0 .91-.046 1.165-.409 1.535-.175.178-.396.331-.834.594l-3 1.8c-1.036.622-1.295.746-1.757.746-.462 0-.72-.124-1.757-.746l-2.111-1.267-.89-.533c-.437-.263-.658-.416-.833-.594C2.046 11.465 2 11.21 2 10.3V7.33c-.18-.118-.348-.228-.5-.33C0 6 0 6 1.5 5S6 2.1 7 1.5c1-.6 1-.6 2 0S13 4 14.5 5s1.5 1 0 2c-.152.102-.32.212-.5.33z" fill="#fff" fill-rule="nonzero"/></svg>
