<svg width="40" height="40" xmlns="http://www.w3.org/2000/svg"><g fill="none" fill-rule="evenodd"><circle fill="#8250E6" cx="20" cy="20" r="20"/><path opacity=".1" d="M8 8h24v24H8z"/><path d="M26.5 15c2 0 2.5.5 2.5 2 0 2-.5 2.498-2 2.498v5C27 28 26.5 28.5 23 28.5l-6-.002c-3.5 0-4-.498-4-4v-5c-1.5 0-2-.498-2-2.498 0-1.5.5-2 2.5-2h13zM21 19.498h6v2h-6V28.5h-2v-7.002h-6v-2h6V15h2v4.498zm-1-4.5c-3 0-6-1-6-2.5S15.5 10 17 10.5c1 .334 2 1.833 3 4.498 1-2.665 2-4.164 3-4.498 1.5-.5 3 .498 3 1.998s-3 2.5-6 2.5z" fill="#FFF"/></g></svg>