<svg width="40" height="40" viewBox="0 0 40 40" fill="none" xmlns="http://www.w3.org/2000/svg">
<path fill-rule="evenodd" clip-rule="evenodd" d="M20 40C31.0457 40 40 31.0457 40 20C40 8.9543 31.0457 0 20 0C8.9543 0 0 8.9543 0 20C0 31.0457 8.9543 40 20 40Z" fill="#FFAE0D"/>
<path fill-rule="evenodd" clip-rule="evenodd" d="M20 24.725L14.8542 27.8681C14.4746 28.0999 14.004 27.758 14.1072 27.3253L15.5063 21.4601L10.9269 17.5374C10.5891 17.248 10.7689 16.6948 11.2122 16.6593L17.2227 16.1774L19.5383 10.61C19.7091 10.1993 20.2909 10.1993 20.4617 10.61L22.7773 16.1774L28.7878 16.6593C29.2311 16.6948 29.4109 17.248 29.0731 17.5374L24.4937 21.4601L25.8928 27.3253C25.996 27.758 25.5254 28.0999 25.1458 27.8681L20 24.725Z" fill="white"/>
</svg>
