<svg width="96" height="96" xmlns="http://www.w3.org/2000/svg" style="background: #fff;"><path d="M48 96C21.49 96 0 74.51 0 48S21.49 0 48 0s48 21.49 48 48-21.49 48-48 48zm0-59c-.878-.94-1.795-1.881-2.867-2.79C42.96 32.383 40.395 31 37 31c-7 0-11.6 6-11 13 .513 5.98 5 12 17 20 2 1.333 3.667 2 5 2 1.333 0 3-.667 5-2 12-8 16.487-14.018 17-20 .6-7-4-13-11-13-3.395 0-5.96 1.383-8.205 3.27-1 .849-1.917 1.79-2.795 2.73zm11-2c4.385 0 7.438 3.718 7.015 8.658-.413 4.808-4.684 9.98-15.234 17.014C49.378 61.607 48.396 62 48 62c-.396 0-1.378-.393-2.781-1.328-10.549-7.033-14.822-12.206-15.234-17.014C29.562 38.718 32.615 35 37 35c2.839 0 4.854 1.277 8.076 4.73L48 42.861l2.924-3.133C54.146 36.277 56.161 35 59 35z" fill="#30bf78" fill-rule="evenodd"/></svg>
