<svg width="16" height="16" xmlns="http://www.w3.org/2000/svg"><path d="M12.285 4H13.5c1 0 1.5.5 1.5 1.5v1c0 1 0 1.5-1 1.5v4.5c0 1-.333 1.5-1.5 1.5h-9c-1 0-1.5-.5-1.5-1.5V8c-.5 0-1-.5-1-1.5v-1C1 4.5 1.5 4 2.5 4h1.215A2.1 2.1 0 0 1 3 3C2.5 1.5 4 0 6 .5c1 .25 1.625.875 2 1.688C8.375 1.375 9 .75 10 .5c2-.5 3.5 1 3 2.5a2.1 2.1 0 0 1-.715 1zM13 8H8.5v5H12c1 0 1 0 1-1V8zM3 8v4c0 1 0 1 1 1h3.5V8H3zm10-3H8.5v2H13c1 0 1 0 1-1s0-1-1-1zM3 5C2 5 2 5 2 6s0 1 1 1h4.5V5H3zm2.757-3.53c-1.21-.302-2.061.454-1.808 1.214.244.731 1.346 1.185 3.497 1.292-.163-1.425-.705-2.26-1.689-2.506zm4.486 0c-.984.246-1.526 1.081-1.69 2.506 2.152-.107 3.254-.56 3.498-1.292.253-.76-.598-1.516-1.808-1.214z" fill="#99752E" fill-rule="evenodd"/></svg>