<svg width="64" height="64" xmlns="http://www.w3.org/2000/svg"><g fill="none" fill-rule="evenodd"><circle fill="#FFF" cx="32" cy="32" r="32"/><path d="M32 24.667c.585-.627 1.197-1.254 1.863-1.82 1.497-1.258 3.207-2.18 5.47-2.18 4.667 0 7.734 4 7.334 8.666-.342 3.988-3.334 8-11.334 13.334C34 43.556 32.89 44 32 44c-.889 0-2-.444-3.333-1.333-8-5.334-10.992-9.347-11.334-13.334-.4-4.666 2.667-8.666 7.334-8.666 2.263 0 3.973.922 5.422 2.14.714.606 1.326 1.233 1.911 1.86z" fill="#E63973" fill-rule="nonzero"/></g></svg>