<svg width="24" height="24" xmlns="http://www.w3.org/2000/svg"><path d="M5.437 12a4.999 4.999 0 0 1-1.96-2.359C2.81 7.977 2.338 6.598 2.06 5.485c-.52-2.078-.583-2.58.152-3.56.671-.894 1.627-1.062 2.585-.843.46.105.952.307 1.597.63 1.89.944 10.213 5.617 12.636 7.072.934.561 1.232.747 1.577 1.007.79.592 1.269 1.204 1.268 2.21 0 1.006-.48 1.617-1.269 2.209-.345.259-.643.445-1.577 1.005-2.351 1.412-10.77 6.141-12.635 7.074-.645.322-1.137.524-1.597.63-.958.218-1.914.05-2.585-.844-.735-.98-.672-1.482-.152-3.56.278-1.113.75-2.492 1.418-4.156a4.999 4.999 0 0 1 1.959-2.36zm-.103 3.103C4.697 16.69 4.253 17.99 4 19c-.5 2-.5 2.5 1.5 1.5s10.491-5.794 12.5-7c2.5-1.5 2.5-1.5 0-3.001C15.875 9.223 7.5 4.5 5.5 3.5S3.5 3 4 5c.253 1.011.697 2.31 1.334 3.896a3 3 0 0 0 2.33 1.849C11.22 11.29 13 11.709 13 12c0 .291-1.779.71-5.336 1.255a3 3 0 0 0-2.33 1.848z" fill="#A3A3A3" fill-rule="nonzero"/></svg>
