<svg width="24" height="24" xmlns="http://www.w3.org/2000/svg"><path d="M10 1h4c3.5 0 3.5 3.5 5 3.5 3.5 0 5 1.5 5 5V18c0 3.5-1.5 5-5 5H5c-3.5 0-5-1.5-5-5V9.5c0-3.5 1.5-5 5-5C6.5 4.5 6.5 1 10 1zm0 2c-.775 0-1.134.228-1.623.912-.103.145-.543.817-.67.994C6.995 5.904 6.22 6.5 5 6.5c-2.395 0-3 .605-3 3V18c0 2.395.605 3 3 3h14c2.395 0 3-.605 3-3V9.5c0-2.395-.605-3-3-3-1.219 0-1.995-.596-2.707-1.594-.127-.177-.567-.849-.67-.994C15.133 3.228 14.775 3 14 3h-4zm-3.5 9.75a5.5 5.5 0 1 1 11 0 5.5 5.5 0 0 1-11 0zm2 0a3.5 3.5 0 1 0 7 0 3.5 3.5 0 0 0-7 0z" fill="#5181b8" fill-rule="nonzero"/></svg>