<svg width="24" height="24" xmlns="http://www.w3.org/2000/svg"><path d="M6.185 10.588a4 4 0 0 1-2.211-1.342 9.34 9.34 0 0 1-1.914-3.76c-.52-2.08-.583-2.58.152-3.561.671-.894 1.627-1.062 2.585-.843.46.105.952.307 1.597.63 1.89.944 10.213 5.617 12.636 7.072.934.561 1.232.747 1.577 1.007.79.592 1.269 1.204 1.268 2.21 0 1.006-.48 1.617-1.269 2.209-.345.259-.643.445-1.577 1.005-2.351 1.412-10.77 6.141-12.635 7.074-.645.322-1.137.524-1.597.63-.958.218-1.914.05-2.585-.844-.735-.98-.672-1.482-.152-3.56a9.34 9.34 0 0 1 1.914-3.76 4 4 0 0 1 2.21-1.343A150.25 150.25 0 0 0 12.132 12c-1.576-.416-3.56-.888-5.946-1.412z" fill="#E6457A" fill-rule="nonzero"/></svg>
