<svg width="16" height="16" xmlns="http://www.w3.org/2000/svg"><path d="M7.667 13.3a4.413 4.413 0 0 1-2.062.932l-3.224.538a1 1 0 0 1-1.15-1.151l.537-3.224c.126-.76.448-1.47.931-2.062.043-.064.093-.125.15-.182l6.237-6.237a2 2 0 0 1 2.828 0l2.172 2.172a2 2 0 0 1 0 2.828l-6.237 6.237a1.206 1.206 0 0 1-.182.15zM3.767 9L7 12.232l6.202-6.202a.75.75 0 0 0 0-1.06L11.03 2.798a.75.75 0 0 0-1.06 0L3.768 9zM3 10.6l-.48 2.88L5.4 13c.159-.027.315-.066.467-.115l-2.752-2.752c-.05.152-.088.308-.115.467z" fill="#e63973" fill-rule="nonzero"/></svg>
