<svg width="40" height="40" xmlns="http://www.w3.org/2000/svg"><g fill="none" fill-rule="evenodd"><circle fill="#98A5B3" cx="20" cy="20" r="20"/><path opacity=".1" d="M8 8h24v24H8z"/><path d="M17.127 13.052c1.256-.72 1.473-1.469 1.623-2.219.167-.833.417-.833.833-.833h.834c.416 0 .583 0 .833.833.225.751.383 1.502 1.631 2.223 1.397.379 2.08.002 2.717-.422.707-.471.884-.294 1.178 0l.59.59c.294.294.412.412 0 1.178-.372.69-.791 1.333-.418 2.725.72 1.256 1.469 1.473 2.219 1.623.833.167.833.417.833.833v.834c0 .416 0 .583-.833.833-.751.225-1.502.383-2.223 1.631-.379 1.397-.002 2.08.422 2.717.471.707.294.884 0 1.178l-.59.59c-.294.294-.412.412-1.178 0-.69-.372-1.333-.791-2.725-.418-1.256.72-1.473 1.469-1.623 2.219-.167.833-.417.833-.833.833h-.834c-.416 0-.583 0-.833-.833-.225-.751-.383-1.502-1.631-2.223-1.397-.379-2.08-.002-2.717.422-.707.471-.884.294-1.178 0l-.59-.59c-.294-.294-.412-.412 0-1.178.372-.69.791-1.333.418-2.725-.72-1.256-1.469-1.473-2.219-1.623-.833-.167-.833-.417-.833-.833v-.834c0-.416 0-.583.833-.833.751-.225 1.502-.383 2.223-1.631.379-1.397.002-2.08-.422-2.717-.471-.707-.294-.884 0-1.178l.59-.59c.294-.294.412-.412 1.178 0 .69.372 1.333.791 2.725.418zM20 24a4 4 0 1 0 0-8 4 4 0 0 0 0 8z" fill="#FFF"/></g></svg>