<svg width="24" height="24" xmlns="http://www.w3.org/2000/svg"><path d="M3.575 20.622c-1.398-.707.149-2.408.505-4.754a7.723 7.723 0 0 1-1.003-3.809C3.077 7.61 6.865 4 11.538 4 16.212 4 20 7.608 20 12.06c0 4.45-3.788 8.059-8.462 8.059-.68 0-1.341-.077-1.975-.221-1.923 1.165-4.64 1.406-5.988.724zM8.54 18.17l.683-.414.777.177a6.92 6.92 0 0 0 1.538.172c3.6 0 6.471-2.735 6.471-6.045s-2.87-6.044-6.47-6.044c-3.6 0-6.471 2.734-6.471 6.044 0 .994.256 1.95.74 2.81l.345.61-.105.695c-.113.74-.302 1.405-.602 2.24l-.207.574c.94.053 2.317-.223 3.301-.82z" fill="#e6457a" fill-rule="nonzero"/></svg>
