<svg width="16" height="16" xmlns="http://www.w3.org/2000/svg"><path d="M3.81 11.635c.241.24.488.468.739.68-.35.225-.549.468-.549.685 0 .64 1.72 1.5 4 1.5 2.28 0 4-.86 4-1.5 0-.217-.198-.46-.549-.685.25-.212.498-.44.738-.68.513.392.811.861.811 1.365 0 1.38-2.239 2.5-5 2.5S3 14.38 3 13c0-.504.298-.973.81-1.365zM8 0c3.3 0 6 2.7 6 6 0 4-5 7-6 7s-6-3-6-7c0-3.3 2.7-6 6-6zm0 1C5.252 1 3 3.252 3 6c0 1.46.855 2.949 2.298 4.26C6.365 11.23 7.73 12 8 12s1.635-.77 2.702-1.74C12.145 8.95 13 7.46 13 6c0-2.748-2.252-5-5-5zm0 7.5a2.5 2.5 0 1 1 0-5 2.5 2.5 0 0 1 0 5zm0-1a1.5 1.5 0 1 0 0-3 1.5 1.5 0 0 0 0 3z" fill="#7a7a7a" fill-rule="nonzero"/></svg>
