<svg width="16" height="16" xmlns="http://www.w3.org/2000/svg"><path d="M2.45 13.644c-.506-.256-.482-.442.05-1.921.185-.516.297-.91.361-1.33-.466-.87-.707-1.77-.707-2.704 0-3.086 2.629-5.589 5.873-5.589 3.245 0 5.873 2.503 5.873 5.589 0 3.085-2.628 5.589-5.873 5.589-.467 0-.926-.052-1.372-.154-1.361.792-3.252 1.002-4.204.52zm3.46-1.642l.483-.293.548.125c.352.08.716.122 1.086.122 2.541 0 4.568-1.93 4.568-4.267 0-2.337-2.027-4.267-4.568-4.267-2.54 0-4.567 1.93-4.567 4.267 0 .701.18 1.376.523 1.984l.243.43-.075.49c-.079.523-.213.992-.425 1.582l-.145.405c.663.037 1.635-.158 2.33-.578z" fill="#e6457a" fill-rule="nonzero"/></svg>
