<svg width="16" height="16" xmlns="http://www.w3.org/2000/svg"><path d="M6 10v.5a.5.5 0 0 1-1 0V10H3v2c0 1 0 1 1 1h8c1 0 1 0 1-1v-2h-2v.5a.5.5 0 0 1-1 0V10H6zM5 9v-.5a.5.5 0 0 1 1 0V9h4v-.5a.5.5 0 0 1 1 0V9h1c2 0 2 0 2-2V5c0-1 0-1-1-1H3C2 4 2 4 2 5v2c0 2 0 2 2 2h1zM4 3v-.5C4 1.5 4.5 1 5.5 1h5c1 0 1.5.5 1.5 1.5V3h1.5c1 0 1.5.5 1.5 1.5v3c0 1.355-.23 2.022-1 2.31v2.69c0 1-.5 1.5-1.5 1.5h-9c-1 0-1.5-.5-1.5-1.5V9.81c-.77-.288-1-.955-1-2.31v-3C1 3.5 1.5 3 2.5 3H4zm7 0c0-1 0-1-1-1H6C5 2 5 2 5 3h6z" fill="#7a7a7a" fill-rule="nonzero"/></svg>
