<svg width="40" height="40" xmlns="http://www.w3.org/2000/svg"><g fill="none" fill-rule="evenodd"><circle fill="#E63973" cx="20" cy="20" r="20"/><path opacity=".1" d="M8 8h24v24H8z"/><path d="M20 15.905c.365-.403.746-.806 1.162-1.17.933-.809 2-1.402 3.41-1.402 2.91 0 4.822 2.572 4.573 5.572-.213 2.563-2.079 5.143-7.067 8.571-.831.572-1.524.857-2.078.857-.554 0-1.247-.285-2.078-.857-4.988-3.428-6.854-6.008-7.067-8.571-.25-3 1.663-5.572 4.573-5.572 1.41 0 2.477.593 3.38 1.376.446.39.827.793 1.192 1.196z" fill="#FFF" fill-rule="nonzero"/></g></svg>