<svg width="40" height="40" viewBox="0 0 40 40" fill="none" xmlns="http://www.w3.org/2000/svg">
<path fill-rule="evenodd" clip-rule="evenodd" d="M20 40C31.0457 40 40 31.0457 40 20C40 8.9543 31.0457 0 20 0C8.9543 0 0 8.9543 0 20C0 31.0457 8.9543 40 20 40Z" fill="#8250E6"/>
<path fill-rule="evenodd" clip-rule="evenodd" d="M12.9329 15.6618L19.2924 9.29339C19.6826 8.90259 20.3158 8.90215 20.7066 9.2924L27.075 15.6519C27.4658 16.0422 27.4662 16.6754 27.076 17.0661C26.6857 17.4569 26.0526 17.4574 25.6618 17.0671L21.0017 12.4135L21.0139 29.9207L19.0139 29.9221L19.0017 12.4149L14.3481 17.075C13.9578 17.4658 13.3246 17.4662 12.9338 17.076C12.5431 16.6857 12.5426 16.0526 12.9329 15.6618Z" fill="white"/>
</svg>
