<svg width="40" height="40" xmlns="http://www.w3.org/2000/svg"><g fill="none" fill-rule="evenodd"><circle fill="#8250E6" cx="20" cy="20" r="20"/><path opacity=".1" d="M8 8h24v24H8z"/><path d="M24.634 26c.242-.556.366-1.225.366-2 0-1.3-.473-2.477-1.278-3.46.255-.026.514-.04.778-.04 3 0 5.5 1.5 5.5 3.5 0 1.5-.5 2-2 2h-3.366zm-.134-7.5a2.5 2.5 0 1 1 0-5 2.5 2.5 0 0 1 0 5zm-8 1c3.5 0 6.5 2 6.5 4.5 0 1.5-.5 2-2 2h-9c-1.5 0-2-.5-2-2 0-2.5 3-4.5 6.5-4.5zm0-2a3.25 3.25 0 1 1 0-6.5 3.25 3.25 0 0 1 0 6.5z" fill="#FFF"/></g></svg>